<svg id="Group_16916" data-name="Group 16916" xmlns="http://www.w3.org/2000/svg" xmlns:xlink="http://www.w3.org/1999/xlink" width="16.09" height="21.926" viewBox="0 0 16.09 21.926">
  <defs>
    <clipPath id="clip-path">
      <rect id="Rectangle_6634" data-name="Rectangle 6634" width="16.09" height="21.926" fill="#015464"/>
    </clipPath>
  </defs>
  <g id="Group_16915" data-name="Group 16915" clip-path="url(#clip-path)">
    <path id="Path_12365" data-name="Path 12365" d="M16.086,12.216q0,4.411,0,8.822a.8.8,0,0,1-.406.8.811.811,0,0,1-.893-.125q-3.264-2.292-6.531-4.581a.314.314,0,0,0-.435,0q-3.27,2.3-6.55,4.593a.8.8,0,0,1-.876.108.774.774,0,0,1-.4-.781Q.006,12.294,0,3.529A3.49,3.49,0,0,1,3.532,0q4.513,0,9.027,0a3.49,3.49,0,0,1,3.527,3.53q0,4.342,0,8.685M14.6,11.532q0-3.9,0-7.8a2.934,2.934,0,0,0-.074-.7,2.018,2.018,0,0,0-2.056-1.541q-4.423-.009-8.846,0a2.1,2.1,0,0,0-1.267.38,2.113,2.113,0,0,0-.861,1.841q0,7.82,0,15.639c0,.1-.054.248.035.3s.183-.075.266-.133q2.841-1.984,5.677-3.974A.808.808,0,0,1,8.6,15.535q2.139,1.5,4.276,2.994.747.523,1.5,1.044c.059.04.116.128.194.085s.026-.126.031-.191,0-.106,0-.159V11.532" transform="translate(0 0)" fill="#015464"/>
  </g>
</svg>
