<svg id="discover-solid-large" xmlns="http://www.w3.org/2000/svg" width="52.909" height="35.229" viewBox="0 0 52.909 35.229">
  <path id="Path" d="M2.249,4.113a2.546,2.546,0,0,1-1.9.617H0V.013H.353a2.579,2.579,0,0,1,1.9.573A2.326,2.326,0,0,1,3.02,2.35a2.359,2.359,0,0,1-.772,1.764Z" transform="translate(5.798 12.905)" fill="#fff"/>
  <path id="Shape" d="M48.5,35.228H14.109c.664-.111,1.334-.267,1.962-.419l.837-.177c14.443-3.3,27.547-8.3,35.053-13.382.134-.1.268-.193.4-.285.2-.138.379-.268.549-.4V30.82A4.414,4.414,0,0,1,48.5,35.228Zm-45.591-.22h0A4.422,4.422,0,0,1,0,30.863V4.409A4.414,4.414,0,0,1,4.409,0H48.5a4.414,4.414,0,0,1,4.409,4.409V17.79c-.6.5-1.3,1.022-2.2,1.654-7.256,4.912-20.071,9.783-34.28,13.028-.283.062-.566.126-.85.191-.614.14-1.248.284-1.884.4-3.793.812-7.32,1.446-10.781,1.94ZM27.769,19.025h.008a3.764,3.764,0,1,0-.022,0Zm3.36-7.253,3,7.253h.75l2.976-7.3H36.375l-1.852,4.784-1.9-4.739h-1.5ZM15.216,18.959h0a2.282,2.282,0,0,0,2.552-2.293c0-1.122-.479-1.637-2.051-2.2-.854-.307-1.1-.462-1.1-.9s.427-.772,1.015-.772a1.4,1.4,0,0,1,1.1.573l.727-.948a3.064,3.064,0,0,0-2.059-.794h-.035l-.111,0a2.094,2.094,0,0,0-2.094,2.032c0,.974.456,1.482,1.741,1.939.439.158.692.272.86.348l.11.049a.894.894,0,0,1,.4.75.992.992,0,0,1-.994,1,1,1,0,0,1-.108-.006h-.018a1.672,1.672,0,0,1-1.5-.948l-.882.86a2.771,2.771,0,0,0,2.354,1.325Zm6.608-7.452a3.705,3.705,0,0,0-2.618,1.075A3.753,3.753,0,0,0,18.1,15.211a3.685,3.685,0,0,0,1.079,2.641,3.64,3.64,0,0,0,2.581,1.064h.066a3.884,3.884,0,0,0,1.719-.42V16.865a2.206,2.206,0,0,1-1.653.772h-.054a2.3,2.3,0,0,1-2.3-2.382,2.337,2.337,0,0,1,2.314-2.426h.023a2.2,2.2,0,0,1,1.7.794l-.023-1.676a3.5,3.5,0,0,0-1.7-.44Zm16.755.22h0v7.121h3.858V17.636H39.9v-1.9h2.447V14.527H39.9V12.963H42.46l-.022-1.235H38.58Zm6.173,4.255h.2l1.918,2.844,1.632-.088-2.2-2.91A1.907,1.907,0,0,0,47.9,13.757c0-1.317-.916-2.072-2.513-2.072H43.363v7.054h1.389V15.984ZM10.869,11.728V18.8h1.389l-.023-7.077Zm-6.46,0v7.054H6.416c.073,0,.146.006.219.006a3.771,3.771,0,0,0,2.315-.8,3.549,3.549,0,0,0-2.277-6.27c-.085,0-.172,0-.257.009ZM48.5,11.464a.552.552,0,0,0-.552.551.521.521,0,0,0,.152.378.515.515,0,0,0,.364.151h.014l-.045-.044a.529.529,0,0,0,.1.01.519.519,0,0,0,.32-.111.513.513,0,0,0,.2-.384A.551.551,0,0,0,48.5,11.464Zm-3.306,3.5h-.441V12.83h.441c.877,0,1.322.349,1.322,1.037C46.516,14.588,46.059,14.969,45.194,14.969Zm3.294-2.491h-.01a.434.434,0,0,1-.261-.1.427.427,0,0,0,.194.051h.012l.04,0a.429.429,0,0,1-.217-.086H48.3v-.264l.2.264h.157a.351.351,0,0,1-.192.086l.036,0h.012a.351.351,0,0,0,.233-.089h-.068a.545.545,0,0,0,.036-.044h.077l-.005.005c-.012.013-.025.026-.039.038h.02A.352.352,0,0,1,48.488,12.478Zm-.341-.143h0a.426.426,0,0,1-.152-.362.419.419,0,0,1,.419-.441h.022l0,0a.422.422,0,0,0-.243.126l-.049,0v.06a.615.615,0,0,0-.088.292.429.429,0,0,0,.088.3v.025Zm.522,0-.023-.032h0l-.168-.242.026-.008a.168.168,0,0,0,.106-.147.265.265,0,0,0,0-.028v0h0c-.012-.11-.095-.169-.241-.169h-.2l.006,0c.016-.014.03-.027.045-.039a.423.423,0,0,1,.258-.088l-.04-.04h.015a.422.422,0,0,1,.195.083l-.015-.011a.358.358,0,0,1,.094.086.421.421,0,0,1,.082.324.507.507,0,0,1-.1.287H48.7a.115.115,0,0,1-.015.017Z" transform="translate(0 0)" fill="#fff"/>
</svg>
