<svg id="Group_16912" data-name="Group 16912" xmlns="http://www.w3.org/2000/svg" xmlns:xlink="http://www.w3.org/1999/xlink" width="22.658" height="17.228" viewBox="0 0 22.658 17.228">
  <defs>
    <clipPath id="clip-path">
      <rect id="Rectangle_6632" data-name="Rectangle 6632" width="22.658" height="17.228" fill="#015464"/>
    </clipPath>
  </defs>
  <g id="Group_16911" data-name="Group 16911" clip-path="url(#clip-path)">
    <path id="Path_12359" data-name="Path 12359" d="M0,16.609c.268-.574.473-1.172.7-1.762q2.753-7.1,5.5-14.2A.864.864,0,0,1,7.125,0Q8.2,0,9.271,0a.855.855,0,0,1,.937.648q3.075,7.935,6.149,15.871c.17.438,0,.7-.464.7-.737.009-1.475,0-2.212,0a.541.541,0,0,1-.564-.4c-.391-1.048-.8-2.09-1.2-3.135-.122-.318-.213-.383-.559-.384h-6.3c-.352,0-.439.058-.562.379q-.6,1.566-1.2,3.133a.5.5,0,0,1-.58.4c-.723,0-1.445,0-2.168,0A.551.551,0,0,1,0,16.962Zm8.186-6.065c.663,0,1.326,0,1.989,0,.409,0,.574-.245.427-.63q-1-2.606-2-5.21c-.073-.191-.178-.352-.4-.351s-.327.164-.4.354Q6.81,7.3,5.814,9.9c-.157.41.008.645.449.646.641,0,1.282,0,1.923,0" transform="translate(0 0.001)" fill="#015464"/>
    <path id="Path_12360" data-name="Path 12360" d="M268.958,141.471a.51.51,0,0,1-.479.262c-.251,0-.5,0-.752,0a.489.489,0,0,1-.485-.346c-.271-.692-.554-1.379-.827-2.07a.435.435,0,0,0-.449-.315c-1.054.007-2.108.005-3.162.015a.173.173,0,0,1-.194-.131q-.42-1.092-.844-2.181a.362.362,0,0,1,.011-.277c.454-1.189.9-2.379,1.361-3.566a.8.8,0,0,1,.8-.544q.5,0,1,0a.84.84,0,0,1,.879.6q.985,2.588,1.968,5.177.545,1.433,1.093,2.866a1.631,1.631,0,0,0,.079.157Zm-4.5-4.078c.287,0,.574.005.861,0,.226-.005.293-.106.211-.314-.288-.724-.58-1.446-.87-2.168-.036-.09-.073-.182-.192-.185s-.169.1-.207.2q-.431,1.074-.86,2.148c-.086.218-.018.319.219.323.28.005.56,0,.839,0" transform="translate(-246.3 -124.508)" fill="#015464"/>
  </g>
</svg>
