<svg xmlns="http://www.w3.org/2000/svg" xmlns:xlink="http://www.w3.org/1999/xlink" width="21" height="21.012" viewBox="0 0 21 21.012">
  <defs>
    <clipPath id="clip-path"/>
  </defs>
  <g id="Group_16539" data-name="Group 16539" transform="translate(0 0)" clip-path="url(#clip-path)">
    <path id="Path_11324" data-name="Path 11324" d="M16.707,8.4c1.26,0,2.52,0,3.78,0,.218,0,.319.049.358.287a10.325,10.325,0,0,1-2.16,8.388,9.989,9.989,0,0,1-5.949,3.688,10.213,10.213,0,0,1-9.078-2.307A10.048,10.048,0,0,1,.126,12.081a10.2,10.2,0,0,1,2.159-8.1A10.1,10.1,0,0,1,8.942.123a10.286,10.286,0,0,1,8.351,2.369c.185.153.354.324.534.484.09.08.094.146,0,.235q-1.378,1.372-2.75,2.75c-.11.111-.179.064-.271-.021a6.282,6.282,0,0,0-8.324-.248A6.015,6.015,0,0,0,4.278,9.731,6.1,6.1,0,0,0,5.749,14.6a6.041,6.041,0,0,0,3.963,2.135A6.307,6.307,0,0,0,16.3,12.941c.133-.311.123-.33-.206-.33-1.071,0-2.141,0-3.212,0-.215,0-.293-.056-.291-.282q.014-1.824,0-3.649c0-.224.074-.285.29-.284,1.274.008,2.549,0,3.824,0" transform="translate(0 0)" fill="#fff"/>
  </g>
</svg>
