<svg xmlns="http://www.w3.org/2000/svg" xmlns:xlink="http://www.w3.org/1999/xlink" width="40" height="40" viewBox="0 0 40 40">
  <defs>
    <clipPath id="clip-path">
      <rect id="Rectangle_6562" data-name="Rectangle 6562" width="21" height="20.975" fill="#015464"/>
    </clipPath>
  </defs>
  <g id="Group_17035" data-name="Group 17035" transform="translate(-1630 -283)">
    <rect id="Rectangle_6564" data-name="Rectangle 6564" width="40" height="40" rx="6" transform="translate(1630 283)" fill="#a5dbc1"/>
    <g id="Group_16831" data-name="Group 16831" transform="translate(1640 291.666)">
      <g id="Group_16830" data-name="Group 16830" clip-path="url(#clip-path)">
        <path id="Path_12314" data-name="Path 12314" d="M8.039,0A1.912,1.912,0,0,1,9.313.979a2.063,2.063,0,0,1,.2.95q.006,2.8,0,5.606A1.832,1.832,0,0,1,8.138,9.43a2.46,2.46,0,0,1-.649.071c-1.79,0-3.581-.015-5.371.006A1.944,1.944,0,0,1,0,8.023V1.433A2.064,2.064,0,0,1,.673.37,2.6,2.6,0,0,1,1.436,0Z" fill="#015464"/>
        <path id="Path_12315" data-name="Path 12315" d="M233.33,8.023a1.913,1.913,0,0,1-.963,1.262,2.069,2.069,0,0,1-.971.214q-2.809.006-5.617,0a1.834,1.834,0,0,1-1.9-1.378,2.446,2.446,0,0,1-.071-.648c0-1.787.015-3.574-.006-5.361A1.94,1.94,0,0,1,225.291,0h6.6a2.076,2.076,0,0,1,1.065.671,2.639,2.639,0,0,1,.371.762Z" transform="translate(-212.33)" fill="#015464"/>
        <path id="Path_12316" data-name="Path 12316" d="M0,224.931a1.912,1.912,0,0,1,.963-1.262,2.068,2.068,0,0,1,.971-.214q2.809-.006,5.617,0a1.837,1.837,0,0,1,1.9,1.377,2.206,2.206,0,0,1,.069.587q0,2.8,0,5.606a1.842,1.842,0,0,1-1.364,1.888,2.084,2.084,0,0,1-.569.056H1.907a1.8,1.8,0,0,1-1.86-1.333c-.013-.039-.031-.076-.047-.113v-6.591" transform="translate(0 -211.995)" fill="#015464"/>
        <path id="Path_12317" data-name="Path 12317" d="M233.432,231.5a2.248,2.248,0,0,1-.456.859,1.739,1.739,0,0,1-1.287.585c-2,0-4,.008-6.007,0a1.78,1.78,0,0,1-1.742-1.614,5.929,5.929,0,0,1-.028-.612q0-2.639,0-5.279a2.018,2.018,0,0,1,.364-1.253,1.851,1.851,0,0,1,1.563-.75q2.85-.01,5.7,0a1.857,1.857,0,0,1,1.892,1.475Z" transform="translate(-212.432 -211.97)" fill="#015464"/>
      </g>
    </g>
  </g>
</svg>
