<svg id="Group_16833" data-name="Group 16833" xmlns="http://www.w3.org/2000/svg" xmlns:xlink="http://www.w3.org/1999/xlink" width="22.174" height="16.641" viewBox="0 0 22.174 16.641">
  <defs>
    <clipPath id="clip-path">
      <rect id="Rectangle_6563" data-name="Rectangle 6563" width="22.174" height="16.641" fill="#7cc9b5"/>
    </clipPath>
  </defs>
  <g id="Group_16832" data-name="Group 16832" clip-path="url(#clip-path)">
    <path id="Path_12318" data-name="Path 12318" d="M112.594,110.72a2.363,2.363,0,0,1-.569,1.052,2.182,2.182,0,0,1-1.628.63q-6.1,0-12.191,0a2.094,2.094,0,0,1-2.127-1.392,2.056,2.056,0,0,1,1.8-2.727c.281-.018.562-.022.843-.022q5.76,0,11.519,0a2.83,2.83,0,0,1,.92.105,2.04,2.04,0,0,1,1.366,1.393c.019.062.041.123.062.184Z" transform="translate(-90.42 -102.007)" fill="#7cc9b5"/>
    <path id="Path_12319" data-name="Path 12319" d="M112.614,2.446A2.1,2.1,0,0,1,111.3,4a2.129,2.129,0,0,1-.783.143q-6.2,0-12.407,0A2.064,2.064,0,0,1,97.929.016c.115-.008.231,0,.346,0,3.984,0,7.968.022,11.952-.012a2.216,2.216,0,0,1,2.387,1.667Z" transform="translate(-90.44 -0.001)" fill="#7cc9b5"/>
    <path id="Path_12320" data-name="Path 12320" d="M112.506,218.925a2.255,2.255,0,0,1-.827,1.257,2,2,0,0,1-1.17.395q-6.312.005-12.623,0a2.056,2.056,0,0,1-.266-4.089,3.455,3.455,0,0,1,.517-.034c4.02,0,8.04.015,12.06-.009a2.182,2.182,0,0,1,2.31,1.7Z" transform="translate(-90.332 -203.944)" fill="#7cc9b5"/>
    <path id="Path_12321" data-name="Path 12321" d="M0,1.748A2.212,2.212,0,0,1,.809.506,1.978,1.978,0,0,1,2.854.268,1.978,1.978,0,0,1,4.088,1.936a2.062,2.062,0,0,1-4.01.857C.053,2.718.026,2.643,0,2.569V1.748" transform="translate(0 -0.081)" fill="#7cc9b5"/>
    <path id="Path_12322" data-name="Path 12322" d="M0,218.192a2.2,2.2,0,0,1,.85-1.263A1.98,1.98,0,0,1,3,216.788a1.974,1.974,0,0,1,1.11,1.821,2.065,2.065,0,0,1-4.03.628c-.025-.075-.051-.15-.076-.224v-.821" transform="translate(0 -204.033)" fill="#7cc9b5"/>
    <path id="Path_12323" data-name="Path 12323" d="M0,110.054a2.165,2.165,0,0,1,.73-1.2,1.989,1.989,0,0,1,2.075-.322,1.953,1.953,0,0,1,1.279,1.66,2.059,2.059,0,0,1-4.029.8c-.017-.055-.036-.109-.055-.164v-.778" transform="translate(0 -102.12)" fill="#7cc9b5"/>
  </g>
</svg>
