<svg xmlns="http://www.w3.org/2000/svg" width="847" height="75" viewBox="0 0 847 75">
  <g id="Group_17032" data-name="Group 17032" transform="translate(-73 -785)">
    <path id="Path_12430" data-name="Path 12430" d="M0,0H653V5H0Z" transform="translate(157 804)" fill="#2e7280"/>
    <circle id="Ellipse_129" data-name="Ellipse 129" cx="20" cy="20" r="20" transform="translate(117 785)" fill="#7cc9b5"/>
    <text id="_1" data-name="1" transform="translate(132 813)" fill="#015464" font-size="24" font-family="Graphik-Regular, Graphik"><tspan x="0" y="0">1</tspan></text>
    <text id="Personal_Info" data-name="Personal Info" transform="translate(73 856)" fill="#fff" font-size="20" font-family="Graphik-Regular, Graphik"><tspan x="0" y="0">Personal Info</tspan></text>
    <circle id="Ellipse_130" data-name="Ellipse 130" cx="20" cy="20" r="20" transform="translate(268 785)" fill="#2e7280"/>
    <text id="_2" data-name="2" transform="translate(281 813)" fill="#015464" font-size="24" font-family="Graphik-Regular, Graphik"><tspan x="0" y="0">2</tspan></text>
    <text id="Verify_OTP" data-name="Verify OTP" transform="translate(240 856)" fill="#fff" font-size="20" font-family="Graphik-Regular, Graphik" opacity="0.2"><tspan x="0" y="0">Verify OTP</tspan></text>
    <circle id="Ellipse_131" data-name="Ellipse 131" cx="20" cy="20" r="20" transform="translate(413 785)" fill="#2e7280"/>
    <text id="_3" data-name="3" transform="translate(425 813)" fill="#015464" font-size="24" font-family="Graphik-Regular, Graphik"><tspan x="0" y="0">3</tspan></text>
    <text id="Create_DP" data-name="Create DP" transform="translate(387 856)" fill="#fff" font-size="20" font-family="Graphik-Regular, Graphik" opacity="0.2"><tspan x="0" y="0">Create DP</tspan></text>
    <circle id="Ellipse_132" data-name="Ellipse 132" cx="20" cy="20" r="20" transform="translate(582 785)" fill="#2e7280"/>
    <text id="_4" data-name="4" transform="translate(594 813)" fill="#015464" font-size="24" font-family="Graphik-Regular, Graphik"><tspan x="0" y="0">4</tspan></text>
    <text id="Select_Country" data-name="Select Country" transform="translate(529 856)" fill="#fff" font-size="20" font-family="Graphik-Regular, Graphik" opacity="0.2"><tspan x="0" y="0">Select Country</tspan></text>
    <circle id="Ellipse_133" data-name="Ellipse 133" cx="20" cy="20" r="20" transform="translate(798 785)" fill="#2e7280"/>
    <text id="_5" data-name="5" transform="translate(810 813)" fill="#015464" font-size="24" font-family="Graphik-Regular, Graphik"><tspan x="0" y="0">5</tspan></text>
    <text id="Choose_Book_to_Read" data-name="Choose Book to Read" transform="translate(719 856)" fill="#fff" font-size="20" font-family="Graphik-Regular, Graphik" opacity="0.2"><tspan x="0" y="0">Choose Book to Read</tspan></text>
  </g>
</svg>
