<svg xmlns="http://www.w3.org/2000/svg" width="738.085" height="434.028" viewBox="0 0 738.085 434.028">
  <g id="Group_16413" data-name="Group 16413" transform="translate(-362.247 -456.103)">
    <g id="Account_Details" data-name="Account Details" transform="translate(362.247 456.103)">
      <path id="Path_117" data-name="Path 117" d="M1777.455,1507.913s-173.538-109.006-54.94-225.861,277.312-236.324,383.7-190.106,96.821,104.646,213.677,189.234,89.82,151.737,68.891,185.746-24.417,42.73-24.417,42.73Z" transform="translate(-1681.054 -1081.764)" fill="#126f81"/>
      <path id="Path_118" data-name="Path 118" d="M2034.476,1267.584c25.7-22.887,44.569-9.235,58.623,6.023,11.2,12.162,12.764,14.858,22.02,27.458a11.064,11.064,0,0,1,2.473,6.27c.26,13.93,7.387,72.829-.535,93.153-9.235,23.69-123.133,34.53-123.133,34.53Z" transform="translate(-1805.526 -1150.844)" fill="#303c60"/>
      <g id="Group_41" data-name="Group 41" transform="translate(300.72 152.906)">
        <path id="Path_119" data-name="Path 119" d="M2181.628,1445.917a1.174,1.174,0,0,1-.058-2.346,10.916,10.916,0,0,0,8.41-4.645c12.77-16.546,5.59-71.786-.667-101.819a1.174,1.174,0,0,1,2.3-.479,402.721,402.721,0,0,1,7.361,54.091c1.466,24.908-.935,41.609-7.135,49.64a13.3,13.3,0,0,1-10.15,5.556Z" transform="translate(-2180.456 -1335.693)" fill="#303c60"/>
      </g>
      <g id="Group_42" data-name="Group 42" transform="translate(105.982 144.475)">
        <path id="Path_121" data-name="Path 121" d="M1858.232,1497.094a1.2,1.2,0,0,1-.157-.01,1.173,1.173,0,0,1-1.008-1.318,67.58,67.58,0,0,1,6.044-18.4,80.725,80.725,0,0,1,29.555-33.292c28.983-18.443,48.222-35.825,70.967-121.507a1.174,1.174,0,0,1,2.269.6c-10.992,41.4-21.89,69.393-34.3,88.085-11.521,17.357-23.376,25.7-37.678,34.8-30.108,19.159-34.492,49.717-34.532,50.023A1.174,1.174,0,0,1,1858.232,1497.094Z" transform="translate(-1857.057 -1321.691)" fill="#303c60"/>
      </g>
      <path id="Path_123" data-name="Path 123" d="M2064.838,1360c-17,35.316-14.388,67.361-14.388,67.361s1.961,12.426,9.81,15.043,18.966-5.233,18.312-15.7,2.617-35.97,6.539-45.125S2064.838,1360,2064.838,1360Z" transform="translate(-1827.957 -1192.457)" fill="#f09959"/>
      <path id="Path_124" data-name="Path 124" d="M1925.241,1750.53c1.071,9.636-1.338,8.834,7.228,10.44s23.823-4.283,23.823-4.283l-17.131-31.854Z" transform="translate(-1778.201 -1337.602)" fill="#6791c9"/>
      <path id="Path_125" data-name="Path 125" d="M2001.43,1440.371c-4.817,15.659-40.953,3.614-53.6,7.227s-23.489,56.612-25.3,104.189.6,85.519,5.42,91.542,84.316,8.432,91.542,6.022-60.225-32.521-60.225-32.521-4.216-55.408,1.2-83.713,54.2-65.646,54.2-65.646Z" transform="translate(-1776.886 -1224.431)" fill="#f09959"/>
      <path id="Path_126" data-name="Path 126" d="M2079.568,1448.373c12.647,19.272,45.771,16.863,57.214,32.522s35.533,101.78,35.533,101.78l25.294-87.326s20.513-3.446,13.852,10.84c-11.848,25.408-16.265,107.385-29.114,119.029-14.289,12.948-28.508,2.409-36.532-20.26-7.762-21.929-27.1-69.258-40.953-87.326s-28.908-46.976-28.908-46.976Z" transform="translate(-1838.161 -1227.615)" fill="#f09959"/>
      <path id="Path_127" data-name="Path 127" d="M1961.383,1450.729c25.295,29.511,74.679,28.306,85.52,24.692l10.841-3.614s8.432-3.011,15.659,5.421,24.692,61.43,27.7,73.474,7.828,31.919,7.828,31.919-12.92,15.509-12.92,31.168,5.487,15.793,5.487,15.793-16.054-3.6-19.668-13.234-36.136-96.963-36.136-96.963l-89.736,1.807,1.205,98.769s-7.829-7.227-18.67,0-14.453,24.09-12.647,26.5-3.614,2.409-3.614.6-10.238-45.771-3.011-118.041,21.078-80.1,28.909-80.7A25.433,25.433,0,0,1,1961.383,1450.729Z" transform="translate(-1774.781 -1227.563)" fill="#7cc9b5"/>
      <g id="Group_44" data-name="Group 44" transform="translate(279.201 272.932)">
        <path id="Path_128" data-name="Path 128" d="M2217.53,1747.322a.942.942,0,0,0,.269.058S2217.7,1747.36,2217.53,1747.322Z" transform="translate(-2173.687 -1619.48)" fill="#56af98"/>
        <path id="Path_129" data-name="Path 129" d="M2192.038,1619.336c-5.22,1.606-14.053,20.076-14.053,20.076s-20.076-43.766-26.1-104.4l-7.167,41.131c9.893,26.561,25.42,68.238,27.852,74.723,3.305,8.814,16.635,12.492,18.464,12.9-.5-.169-1.6-.837-2.519-3.482-.527-.481-3.543-1.89-4.107-2.407-4.818-4.417-2.81-14.856.4-26.5S2197.259,1617.73,2192.038,1619.336Z" transform="translate(-2144.72 -1535.017)" fill="#56af98"/>
      </g>
      <path id="Path_130" data-name="Path 130" d="M1975.911,1539.18l-9.953-45.506c-10.841,15.259-12.045,67.456-7.629,103.191,3.623,29.307,9.041,36.912,12.763,39.967a10.847,10.847,0,0,1,1.7,1.2l-1.2-98.769Z" transform="translate(-1790.411 -1245.638)" fill="#7cc9b5"/>
      <path id="Path_131" data-name="Path 131" d="M1941.244,1493.008c18.47,49.789,9.235,59.827,33.539,118.264,13.574,32.639,39.749,57.215,39.749,57.215a166.3,166.3,0,0,0,47.578,3.613c26.5-1.807,45.9-3.628,45.9-3.628s-27.832-16.849-29.036-28.292-6.432-56.831.393-88.953c5.331-25.083-16.655-50.167-16.655-50.167l-36.738-1.806Z" transform="translate(-1784.568 -1245.372)" fill="#7cc9b5"/>
      <path id="Path_132" data-name="Path 132" d="M1995,1616.844c-3.212-11.645,13.652,3.614,41.356,6.424s58.623-1.607,43.366,3.212-57.017-2.409-49.387,12.849c8.978,17.956,19.579,35.333,34.932,45.774,10.038,6.826,34.129,13.249,10.841,9.636s-48.183-30.917-59.024-48.584S1995.714,1619.44,1995,1616.844Z" transform="translate(-1805.798 -1292.92)" fill="#56af98" opacity="0.5"/>
      <path id="Path_133" data-name="Path 133" d="M2084.925,1423.7c.244-12.02,3.175-32.533,6.607-40.541,2.811-6.56-8.811-14.8-15.629-18.942l-5.766-.247q-1.318,2.871-2.471,5.705c-6.088,39.972,12.131,56.489,20.824,59.813a26.292,26.292,0,0,0,11.549,1.269A70.018,70.018,0,0,1,2084.925,1423.7Z" transform="translate(-1834.378 -1194.038)" fill="#e38540"/>
      <g id="Group_45" data-name="Group 45" transform="translate(213.294 223.28)">
        <path id="Path_134" data-name="Path 134" d="M2061.49,1476.72a27.171,27.171,0,0,1-6.411-.776c-5.025-1.225-17.013-5.881-19.8-22.608a.666.666,0,1,1,1.313-.22c2.657,15.946,14.035,20.372,18.8,21.535,7.409,1.806,15.269.134,18.285-3.889,2.419-3.226.968-10.1.953-10.167a.665.665,0,1,1,1.3-.282c.067.305,1.6,7.534-1.189,11.247C2072.278,1474.85,2067.187,1476.72,2061.49,1476.72Z" transform="translate(-2035.27 -1452.561)" fill="#f5ce5c"/>
      </g>
      <path id="Path_135" data-name="Path 135" d="M2134.255,1356.14c-4.085,21.573-13.521,38.975-29.487,35.7s-32.752-26.067-28.334-47.574,20.943-36.283,36.911-33S2139.7,1327.394,2134.255,1356.14Z" transform="translate(-1838.066 -1172.884)" fill="#f09959"/>
      <path id="Path_136" data-name="Path 136" d="M2246.627,1563.022s-29.512,79.3-30.916,87.532,1.4,13.451,2.208,13.451,25.9-42.963,25.9-42.963Z" transform="translate(-1893.608 -1273.227)" fill="#f09959"/>
      <path id="Path_137" data-name="Path 137" d="M2268.426,1545.217c2.41-8.031-1.338-18.2-1.338-18.2l10.707,1.338Z" transform="translate(-1914.202 -1258.902)" fill="#f09959"/>
      <g id="Group_46" data-name="Group 46" transform="translate(333.401 203.961)">
        <path id="Path_138" data-name="Path 138" d="M2267.318,1489.135h-29.876a2.711,2.711,0,0,1-2.6-3.485l18.86-63.236a2.712,2.712,0,0,1,2.6-1.935h29.877a2.71,2.71,0,0,1,2.6,3.485l-18.86,63.235A2.709,2.709,0,0,1,2267.318,1489.135Z" transform="translate(-2234.729 -1420.478)" fill="#4381db"/>
        <path id="Path_139" data-name="Path 139" d="M2273.542,1489.135h-29.876a2.71,2.71,0,0,1-2.6-3.485l18.861-63.236a2.709,2.709,0,0,1,2.6-1.935H2292.4a2.711,2.711,0,0,1,2.6,3.485l-18.86,63.235A2.709,2.709,0,0,1,2273.542,1489.135Z" transform="translate(-2237.206 -1420.478)" fill="#2e5b9a"/>
        <path id="Path_140" data-name="Path 140" d="M2255.931,1444.827c-3.185,11.476-5.329,20.9-4.788,21.051s3.561-9.032,6.746-20.508,5.329-20.9,4.789-21.051S2259.116,1433.35,2255.931,1444.827Z" transform="translate(-2241.226 -1422.005)" fill="#9cbeed"/>
      </g>
      <path id="Path_141" data-name="Path 141" d="M2285.827,1519.2c.883-10.428,9.916-20.2,13.353-23.322a4.937,4.937,0,0,0,1.622-3.7c-.05-5.2-.281-17.469-1.356-18.9-1.368-1.824-4.79-25.32-6.387-24.406s.456,21.441.456,21.441-3.878-1.824-5.931-2.737-10.493,8.44-10.493,8.44-3.958,10,6.862,5.716c12.848-5.086,3.212,9.1-5.354,18.2-7.058,7.5-1.052,9.158-1.052,9.158l5.7-.228Z" transform="translate(-1917.415 -1227.802)" fill="#f09959"/>
      <g id="Group_47" data-name="Group 47" transform="translate(353.157 285.717)">
        <path id="Path_142" data-name="Path 142" d="M2279.558,1570.138a10.548,10.548,0,0,1-3.1-.483c-2.779-.866-7.631-3.661-8.914-12.647a.665.665,0,0,1,1.317-.189c1.1,7.684,4.824,10.488,7.755,11.488a7.245,7.245,0,0,0,4.88.161.666.666,0,0,1,1.277-.157.938.938,0,0,1-.212,1A4.4,4.4,0,0,1,2279.558,1570.138Z" transform="translate(-2267.539 -1556.249)" fill="#f5ce5c"/>
      </g>
      <g id="Group_48" data-name="Group 48" transform="translate(351.852 288.829)">
        <path id="Path_143" data-name="Path 143" d="M2277.574,1569.612a18.931,18.931,0,0,1-2.693-.195c-5.163-.75-8.623-3.37-9.493-7.187a.666.666,0,1,1,1.3-.3c.83,3.643,4.142,5.192,6.773,5.849,3.69.922,7.155.354,7.569-.125a.654.654,0,0,1,.9-.244.675.675,0,0,1,.249.916C2281.68,1569.212,2279.742,1569.612,2277.574,1569.612Z" transform="translate(-2265.371 -1561.417)" fill="#f5ce5c"/>
      </g>
      <g id="Group_49" data-name="Group 49" transform="translate(269.668 167.337)">
        <path id="Path_144" data-name="Path 144" d="M2137.084,1386.8a6.559,6.559,0,0,1-.984-.075c-5.066-.776-8.127-7.313-6.967-14.882a17.769,17.769,0,0,1,3.921-8.967c2.117-2.413,4.668-3.531,7.181-3.147,5.067.776,8.128,7.313,6.968,14.882C2146.119,1381.689,2141.785,1386.8,2137.084,1386.8Zm2.189-24.8a6.147,6.147,0,0,0-4.456,2.421,15.42,15.42,0,0,0-3.365,7.775c-.927,6.058,1.364,11.648,5,12.206s7.5-4.09,8.427-10.149-1.364-11.648-5-12.205A4.044,4.044,0,0,0,2139.273,1362.005Z" transform="translate(-2128.888 -1359.656)" fill="#fff"/>
      </g>
      <g id="Group_50" data-name="Group 50" transform="translate(289.702 170.663)">
        <path id="Path_145" data-name="Path 145" d="M2167.022,1389.031a3.168,3.168,0,0,1-.482-.036c-3.317-.508-5.116-6.128-4.1-12.793s4.427-11.5,7.736-10.982c1.709.262,3.056,1.825,3.788,4.405a20.332,20.332,0,0,1,.308,8.389C2173.305,1384.355,2170.18,1389.031,2167.022,1389.031Zm2.67-22.074c-1.955,0-4.613,3.761-5.495,9.513-.914,5.972.642,10.47,2.611,10.771s4.8-3.525,5.714-9.5a18.581,18.581,0,0,0-.259-7.636c-.526-1.844-1.382-2.987-2.351-3.136A1.535,1.535,0,0,0,2169.693,1366.957Z" transform="translate(-2162.159 -1365.181)" fill="#fff"/>
      </g>
      <g id="Group_51" data-name="Group 51" transform="translate(231.792 160.937)">
        <path id="Path_146" data-name="Path 146" d="M2106.511,1362.62a1.186,1.186,0,0,1-.323-.046l-39.35-11.242a1.174,1.174,0,0,1,.645-2.257l39.349,11.243a1.174,1.174,0,0,1-.321,2.3Z" transform="translate(-2065.988 -1349.029)" fill="#fff"/>
      </g>
      <path id="Path_147" data-name="Path 147" d="M2137.515,1316.119c-60.9,35.87-64.243,11.778-64.243,11.778l3.613-34.262,36.137,2.007Z" transform="translate(-1837.094 -1166.054)" fill="#303c60"/>
      <path id="Path_148" data-name="Path 148" d="M2071.689,1357.485c1.417,6.063-.517,11.7-4.321,12.588s-8.036-3.306-9.453-9.369.518-11.7,4.322-12.589S2070.273,1351.422,2071.689,1357.485Z" transform="translate(-1830.8 -1187.681)" fill="#f09959"/>
      <path id="Path_149" data-name="Path 149" d="M2071,1375.4a2.4,2.4,0,1,1-2.4-2.4A2.4,2.4,0,0,1,2071,1375.4Z" transform="translate(-1834.281 -1197.628)" fill="#f5ce5c"/>
      <path id="Path_150" data-name="Path 150" d="M2448.192,1795.173H1839.029a5.582,5.582,0,1,1,0-11.165h609.163a5.582,5.582,0,1,1,0,11.165Z" transform="translate(-1741.681 -1361.144)" fill="#7cc9b5"/>
      <path id="Path_151" data-name="Path 151" d="M2067.121,1782.224s-22.964.291-23.254,2.325.872,2.906,9.01,4.36,99.7,2.034,100.576,1.453,27.615-6.977,27.615-6.977l-64.24-1.163Z" transform="translate(-1825.38 -1360.434)" fill="#dbe5eb"/>
      <path id="Path_152" data-name="Path 152" d="M2103.277,1753.642s16.462-7.228,21.281-4.016,18.738,17.936,18.738,17.936Z" transform="translate(-1849.031 -1347.138)" fill="#f09959"/>
      <path id="Path_153" data-name="Path 153" d="M2143.733,1762.3c-.314.391-.779.556-1.042.36l-33.874-25.218c-1.825-1.359-2.693-3.436-1.815-4.533s3.094-.706,4.82.777l32.034,27.519C2144.1,1761.416,2144.046,1761.907,2143.733,1762.3Z" transform="translate(-1850.376 -1340.565)" fill="#2e5b9a"/>
      <path id="Path_154" data-name="Path 154" d="M2015.819,1751.727s27.3,10.841,30.517,10.841,21.146-12.045,27.169-10.439,35.468,16.462,34.665,17.666-9.235,4.015-34.13,3.213-65.447-4.417-65.447-4.417Z" transform="translate(-1811.362 -1348.301)" fill="#f09959"/>
      <path id="Rectangle_7" data-name="Rectangle 7" d="M4.692,0H110.02a11.773,11.773,0,0,1,11.773,11.773v0a11.772,11.772,0,0,1-11.772,11.772H4.691A4.691,4.691,0,0,1,0,18.853V4.692A4.692,4.692,0,0,1,4.692,0Z" transform="translate(431.848 399.783)" fill="#f37168"/>
      <path id="Path_155" data-name="Path 155" d="M2503.125,1752.294H2397.466a8.107,8.107,0,0,0-1.175,4.191v7.194a8.1,8.1,0,0,0,1.175,4.191h105.659a6.84,6.84,0,0,0,6.821-6.82v-1.936A6.84,6.84,0,0,0,2503.125,1752.294Z" transform="translate(-1965.603 -1348.526)" fill="#f2e5de"/>
      <path id="Rectangle_8" data-name="Rectangle 8" d="M2.838,0H84.6a7.121,7.121,0,0,1,7.121,7.121v0A7.121,7.121,0,0,1,84.6,14.242H2.838A2.838,2.838,0,0,1,0,11.4V2.838A2.838,2.838,0,0,1,2.838,0Z" transform="translate(455.753 385.54)" fill="#7bcee8"/>
      <path id="Path_156" data-name="Path 156" d="M2516.919,1726.026h-79.569a4.21,4.21,0,0,0-.885,2.535v4.352a4.208,4.208,0,0,0,.885,2.536h79.569c2.825,0,5.136-1.856,5.136-4.126v-1.171C2522.055,1727.883,2519.745,1726.026,2516.919,1726.026Z" transform="translate(-1981.587 -1338.076)" fill="#f2e5de"/>
      <g id="Group_52" data-name="Group 52" transform="translate(462.956 49.57)">
        <path id="Path_157" data-name="Path 157" d="M2543.8,1212.047h-90.257c-2.878,0-4.375-2.354-3.327-5.232l13.648-37.5a8.306,8.306,0,0,1,7.136-5.232h90.258c2.877,0,4.374,2.355,3.328,5.232l-13.649,37.5A8.3,8.3,0,0,1,2543.8,1212.047Z" transform="translate(-2449.879 -1164.084)" fill="#9ec8ff"/>
        <path id="Path_158" data-name="Path 158" d="M2544.971,1210.716h-81.28c-2.493,0-3.79-2.04-2.883-4.532l11.3-31.051a7.191,7.191,0,0,1,6.18-4.531h81.281c2.492,0,3.789,2.038,2.882,4.531l-11.3,31.051A7.194,7.194,0,0,1,2544.971,1210.716Z" transform="translate(-2454.112 -1166.677)" fill="#fff"/>
        <path id="Path_159" data-name="Path 159" d="M2502.889,1240.115c-7.485,19.766-19.008,25.871-19.008,25.871s8.2-11.336,7.009-16.859a12.163,12.163,0,0,0-5.574-7.849Z" transform="translate(-2463.406 -1194.332)" fill="#9ec8ff"/>
        <path id="Path_160" data-name="Path 160" d="M2576.271,1186.832h-52.395a1.06,1.06,0,0,1-.995-1.562l.027-.073a2.481,2.481,0,0,1,2.131-1.562h52.4a1.059,1.059,0,0,1,.992,1.562l-.026.073A2.482,2.482,0,0,1,2576.271,1186.832Z" transform="translate(-2478.883 -1171.862)" fill="#9ec8ff"/>
        <path id="Path_161" data-name="Path 161" d="M2572.231,1197.935h-52.4a1.059,1.059,0,0,1-.993-1.563l.025-.073a2.482,2.482,0,0,1,2.132-1.563h52.4a1.059,1.059,0,0,1,.993,1.563l-.027.073A2.478,2.478,0,0,1,2572.231,1197.935Z" transform="translate(-2477.276 -1176.279)" fill="#9ec8ff"/>
        <path id="Path_162" data-name="Path 162" d="M2567.662,1210.487h-52.4a1.059,1.059,0,0,1-.994-1.562l.027-.073a2.478,2.478,0,0,1,2.13-1.562h52.4a1.059,1.059,0,0,1,.993,1.562l-.027.073A2.478,2.478,0,0,1,2567.662,1210.487Z" transform="translate(-2475.458 -1181.272)" fill="#9ec8ff"/>
        <path id="Path_163" data-name="Path 163" d="M2499.361,1191.058c-2.074,5.7-7.529,10.319-12.185,10.319s-6.748-4.62-4.674-10.319,7.531-10.32,12.186-10.32S2501.436,1185.359,2499.361,1191.058Z" transform="translate(-2462.539 -1170.71)" fill="#9ec8ff"/>
      </g>
      <g id="Group_53" data-name="Group 53" transform="translate(499.903 187.952)">
        <path id="Path_164" data-name="Path 164" d="M2516.907,1401h-4.474a1.157,1.157,0,0,1-1.087-1.71l1.341-3.684a2.7,2.7,0,0,1,2.333-1.71h4.472a1.157,1.157,0,0,1,1.088,1.71l-1.342,3.684A2.7,2.7,0,0,1,2516.907,1401Z" transform="translate(-2511.236 -1393.892)" fill="#9ec8ff"/>
        <path id="Path_165" data-name="Path 165" d="M2540.742,1401h-4.474a1.158,1.158,0,0,1-1.088-1.71l1.341-3.684a2.707,2.707,0,0,1,2.333-1.71h4.474a1.157,1.157,0,0,1,1.088,1.71l-1.341,3.684A2.707,2.707,0,0,1,2540.742,1401Z" transform="translate(-2520.719 -1393.892)" fill="#9ec8ff"/>
        <path id="Path_166" data-name="Path 166" d="M2564.576,1401H2560.1a1.157,1.157,0,0,1-1.087-1.71l1.34-3.684a2.705,2.705,0,0,1,2.333-1.71h4.473a1.157,1.157,0,0,1,1.088,1.71l-1.342,3.684A2.7,2.7,0,0,1,2564.576,1401Z" transform="translate(-2530.201 -1393.892)" fill="#9ec8ff"/>
      </g>
      <g id="Group_54" data-name="Group 54" transform="translate(354.786 118.753)">
        <path id="Path_167" data-name="Path 167" d="M2364.161,1326.937H2273.9c-2.878,0-4.375-2.354-3.327-5.233l13.647-37.5a8.307,8.307,0,0,1,7.137-5.232h90.257c2.877,0,4.376,2.355,3.327,5.232l-13.647,37.5A8.307,8.307,0,0,1,2364.161,1326.937Z" transform="translate(-2270.243 -1278.975)" fill="#9ec8ff"/>
        <path id="Path_168" data-name="Path 168" d="M2365.334,1325.6h-81.28c-2.492,0-3.79-2.039-2.883-4.531l11.3-31.05a7.2,7.2,0,0,1,6.181-4.532h81.28c2.493,0,3.79,2.04,2.883,4.532l-11.3,31.05A7.194,7.194,0,0,1,2365.334,1325.6Z" transform="translate(-2274.475 -1281.567)" fill="#fff"/>
        <path id="Path_169" data-name="Path 169" d="M2281.92,1355.005c-6.9,19.766.176,25.871.176,25.871s.057-11.336,5.264-16.86a34.143,34.143,0,0,1,11.286-7.849Z" transform="translate(-2273.686 -1309.223)" fill="#9ec8ff"/>
        <path id="Path_170" data-name="Path 170" d="M2354.622,1306.067h-44.213a.976.976,0,0,1-.915-1.438l.117-.32a2.283,2.283,0,0,1,1.962-1.439h44.214a.976.976,0,0,1,.915,1.439l-.116.32A2.286,2.286,0,0,1,2354.622,1306.067Z" transform="translate(-2285.822 -1288.481)" fill="#9ec8ff"/>
        <path id="Path_171" data-name="Path 171" d="M2350.579,1317.17h-44.212a.975.975,0,0,1-.915-1.439l.116-.32a2.286,2.286,0,0,1,1.963-1.439h44.213a.976.976,0,0,1,.916,1.439l-.117.32A2.283,2.283,0,0,1,2350.579,1317.17Z" transform="translate(-2284.215 -1292.899)" fill="#9ec8ff"/>
        <path id="Path_172" data-name="Path 172" d="M2346.012,1329.721H2301.8a.976.976,0,0,1-.916-1.439l.117-.32a2.286,2.286,0,0,1,1.963-1.439h44.213a.977.977,0,0,1,.916,1.439l-.117.32A2.282,2.282,0,0,1,2346.012,1329.721Z" transform="translate(-2282.396 -1297.892)" fill="#9ec8ff"/>
        <path id="Path_173" data-name="Path 173" d="M2503.882,1426.991h-87.114c-1.56,0-2.371-.647-1.8-1.438l.229-.319a5.352,5.352,0,0,1,3.867-1.439h87.114c1.559,0,2.37.647,1.8,1.439l-.23.319A5.351,5.351,0,0,1,2503.882,1426.991Z" transform="translate(-2327.747 -1336.59)" fill="#9ec8ff"/>
        <path id="Path_174" data-name="Path 174" d="M2495.92,1445.336h-87.114c-1.559,0-2.37-.647-1.8-1.438l.23-.32a5.352,5.352,0,0,1,3.867-1.438h87.113c1.56,0,2.371.647,1.8,1.438l-.229.32A5.353,5.353,0,0,1,2495.92,1445.336Z" transform="translate(-2324.58 -1343.888)" fill="#9ec8ff"/>
        <path id="Path_175" data-name="Path 175" d="M2403.36,1320.622h-6.395c-2.878,0-4.375-2.354-3.329-5.232l4.762-13.08a8.306,8.306,0,0,1,7.136-5.233h6.395c2.878,0,4.375,2.354,3.329,5.233l-4.761,13.08A8.305,8.305,0,0,1,2403.36,1320.622Z" transform="translate(-2319.201 -1286.177)" fill="#9ec8ff"/>
      </g>
      <g id="Group_64" data-name="Group 64" transform="translate(587.746 58.629)">
        <path id="Path_176" data-name="Path 176" d="M2731.414,1581.594c11.609-63.7,9.068-86.486-22.028-138.481s-34.063-148.756-45.785-120.377-10.143,99.648,26.592,134.233,41.68,50.072,43.862,64.15-5.246,57.344-5.246,57.344Z" transform="translate(-2657.116 -1234.229)" fill="#9cd499"/>
        <path id="Path_177" data-name="Path 177" d="M2737.23,1540.581c.019-.245.036-.486.053-.73-.681-5.226-4.372-32.1-9.478-42.709-5.668-11.773-30.521-32.266-37.5-57.991s-18.034-45.665-25.29-61.916c-9.578-21.456-4.342-49.98,3.577-59.245a1.951,1.951,0,0,0-.579-.265l-2.631,1.589a18.676,18.676,0,0,0-1.784,3.462c-11.72,28.38-10.143,99.649,26.591,134.234s41.68,50.072,43.862,64.15c.588,3.8.477,9.719,0,16.343Z" transform="translate(-2657.116 -1234.267)" fill="#74b570"/>
        <path id="Path_178" data-name="Path 178" d="M2745.769,1515.254c8.638-74.859,5.759-100.772-10.941-160.66s92.135-196.361,88.68-172.751-14.972,82.345-44.915,119.2-32.247,66.8-26.489,98.469-1.151,105.378-1.151,105.378l-3.456,13.244Z" transform="translate(-2687.339 -1179.128)" fill="#9cd499"/>
        <g id="Group_55" data-name="Group 55" transform="translate(51.045 8.386)">
          <path id="Path_179" data-name="Path 179" d="M2753.247,1489.688h-.028a.721.721,0,0,1-.694-.75c.008-.231.865-23.308.435-42.25-.43-18.961-5.569-51.449-8.693-62.609-2.847-10.162-6.426-44.242,10.948-79.435,8.654-17.53,15.56-28.612,25.12-43.952,9.449-15.161,21.209-34.03,39.865-67.268a.722.722,0,0,1,1.26.707c-18.672,33.267-30.441,52.151-39.9,67.325-9.537,15.305-16.429,26.362-25.052,43.828-17.172,34.785-13.656,68.392-10.852,78.406,3.144,11.229,8.314,43.905,8.748,62.965.432,18.987-.429,42.106-.437,42.338A.722.722,0,0,1,2753.247,1489.688Z" transform="translate(-2741.886 -1193.054)" fill="#74b570"/>
        </g>
        <path id="Path_180" data-name="Path 180" d="M2745.848,1637.468c5.182-50.1,6.05-25.391-15.474-93.46-24.633-77.907,63.269-147.071,77.664-118.854s31.1,116.9,24.761,114.017-48.371-85.224-49.522-81.77-57.008,32.248-54.7,61.616,23.609,76.011,23.609,76.011l-.575,43.017Z" transform="translate(-2684.539 -1274.448)" fill="#9cd499"/>
        <g id="Group_56" data-name="Group 56" transform="translate(40.784 143.553)">
          <path id="Path_181" data-name="Path 181" d="M2751.129,1636.983c-.025,0-.049,0-.072,0l-5.759-.577a.724.724,0,0,1-.647-.793c.6-5.788,1.152-10.662,1.6-14.578,2.412-21.269,2.412-21.269-4.19-39.49-2.983-8.234-7.068-19.51-12.848-37.791a93.132,93.132,0,0,1-3.32-42.111,107.939,107.939,0,0,1,12.837-36.868c11.4-20.377,29.344-37.878,45.712-44.587,11.374-4.663,20.038-3.145,23.768,4.164,6.11,11.978,13.417,36.5,19.543,65.6,3.536,16.794,8.733,46.04,5.781,49.128a1.277,1.277,0,0,1-1.506.276c-3.456-1.572-14.9-21.762-30.684-50.114-7.915-14.214-16.083-28.883-18.288-31.412-.889.988-3.131,2.533-7.779,5.686-15.646,10.612-48.2,32.694-46.456,54.971,2.266,28.9,23.333,75.3,23.545,75.767a.723.723,0,0,1,.066.309l-.576,41.71a.722.722,0,0,1-.722.713Zm-4.966-1.946,4.254.426.563-40.76c-1.328-2.94-21.383-47.772-23.605-76.106-1.813-23.114,31.214-45.515,47.085-56.28,3.771-2.557,7.332-4.973,7.662-5.639a.842.842,0,0,1,.72-.577c1.4-.131,4.158,4.417,19.759,32.435,11.2,20.108,26.5,47.589,29.944,49.464.265-.432,1.048-2.794-.475-14.953-1.1-8.792-3.122-20.36-5.688-32.57-6.112-29.085-13.389-53.56-19.465-65.471-3.346-6.556-11.34-7.826-21.933-3.484-28.7,11.765-72.683,63.964-54.4,121.792,5.77,18.251,9.85,29.512,12.829,37.734,6.718,18.54,6.718,18.54,4.267,40.145C2747.236,1625.139,2746.731,1629.587,2746.163,1635.037Z" transform="translate(-2724.846 -1417.525)" fill="#74b570"/>
        </g>
        <path id="Path_182" data-name="Path 182" d="M2763.526,1736.605h-26.132c-1.8,0-3.4-1.021-3.572-2.293l-8.781-66.011c-.406-3.046,1.608-5.611,4.485-5.611h41.864c2.877,0,4.892,2.565,4.486,5.611l-8.781,66.011C2766.928,1735.584,2765.322,1736.605,2763.526,1736.605Z" transform="translate(-2684.119 -1371.508)" fill="#7bcee8"/>
        <path id="Path_183" data-name="Path 183" d="M2779.207,1738.964h-3.742c-1.83,0-3.3-1.059-3.272-2.379l1.322-57.02a5.324,5.324,0,0,1,5.167-5.223h5.676a4.565,4.565,0,0,1,4.491,5.223l-6.062,57.02C2782.646,1737.9,2781.037,1738.964,2779.207,1738.964Z" transform="translate(-2702.898 -1376.144)" fill="#a2dff2"/>
        <g id="Group_57" data-name="Group 57" transform="translate(44.902 181.633)">
          <path id="Path_184" data-name="Path 184" d="M2735.235,1615.883l.462-.8a165.374,165.374,0,0,1-4.011-17.887A91.173,91.173,0,0,0,2735.235,1615.883Z" transform="translate(-2731.685 -1527.084)" fill="#74b570"/>
          <path id="Path_185" data-name="Path 185" d="M2735.4,1521.31a53.784,53.784,0,0,0-3.3,13.039c7.713-25.322,50.668-48.182,53.458-52.037l.5-.97C2769.916,1476.835,2744.118,1499.509,2735.4,1521.31Z" transform="translate(-2731.848 -1480.764)" fill="#74b570"/>
        </g>
        <g id="Group_58" data-name="Group 58" transform="translate(45.985 154.967)">
          <path id="Path_186" data-name="Path 186" d="M2835.8,1544.674a.723.723,0,0,1-.7-.55l-7.8-31.754c-6.1-24.882-13.68-55.849-22.194-69.633-1.4-2.273-7.535-5.346-16.219-4.733-11.738.831-34.363,8.94-54.011,53.913a.723.723,0,1,1-1.325-.578c19.953-45.67,43.17-53.922,55.234-54.777,9.384-.659,15.916,2.767,17.551,5.416,8.635,13.979,15.931,43.767,22.369,70.048l7.8,31.752a.724.724,0,0,1-.53.875A.716.716,0,0,1,2835.8,1544.674Z" transform="translate(-2733.482 -1436.48)" fill="#74b570"/>
        </g>
        <g id="Group_59" data-name="Group 59" transform="translate(120.763 166.227)">
          <path id="Path_187" data-name="Path 187" d="M2862.314,1510.691a.628.628,0,0,1-.084,0,.724.724,0,0,1-.635-.8c.031-.26,2.956-26.36-3.907-53.808a.723.723,0,0,1,1.4-.351c6.928,27.713,3.972,54.063,3.941,54.327A.723.723,0,0,1,2862.314,1510.691Z" transform="translate(-2857.665 -1455.179)" fill="#74b570"/>
        </g>
        <g id="Group_60" data-name="Group 60" transform="translate(116.621 160.122)">
          <path id="Path_188" data-name="Path 188" d="M2851.51,1490.525a.682.682,0,0,1-.086-.006.722.722,0,0,1-.633-.8c.029-.239,2.8-24.138.87-43.884a.723.723,0,0,1,1.439-.141c1.947,19.905-.845,43.953-.874,44.194A.723.723,0,0,1,2851.51,1490.525Z" transform="translate(-2850.787 -1445.04)" fill="#74b570"/>
        </g>
        <g id="Group_61" data-name="Group 61" transform="translate(89.151 43.269)">
          <path id="Path_189" data-name="Path 189" d="M2805.891,1285.13a.723.723,0,0,1-.312-1.374c.207-.1,20.866-10.2,32.815-32.393a.722.722,0,1,1,1.271.685c-12.179,22.619-33.25,32.909-33.461,33.01A.715.715,0,0,1,2805.891,1285.13Z" transform="translate(-2805.168 -1250.984)" fill="#74b570"/>
        </g>
        <g id="Group_62" data-name="Group 62" transform="translate(73.891 82.075)">
          <path id="Path_190" data-name="Path 190" d="M2780.547,1336.93a.723.723,0,0,1-.145-1.431c.169-.035,17.091-3.661,37.189-19.911a.722.722,0,0,1,.909,1.123c-20.394,16.489-37.635,20.169-37.807,20.2A.728.728,0,0,1,2780.547,1336.93Z" transform="translate(-2779.825 -1315.428)" fill="#74b570"/>
        </g>
        <g id="Group_63" data-name="Group 63" transform="translate(60.809 113.904)">
          <path id="Path_191" data-name="Path 191" d="M2759.295,1383.261c-.3,0-.473-.01-.524-.015a.723.723,0,1,1,.107-1.441c.116.009,11.778.644,30.47-13.375a.723.723,0,0,1,.868,1.157C2773.052,1382.46,2761.82,1383.261,2759.295,1383.261Z" transform="translate(-2758.102 -1368.287)" fill="#74b570"/>
        </g>
      </g>
    </g>
  </g>
</svg>
