<svg id="Group_102" data-name="Group 102" xmlns="http://www.w3.org/2000/svg" width="34.949" height="34.949" viewBox="0 0 34.949 34.949">
  <circle id="Ellipse_100" data-name="Ellipse 100" cx="17.475" cy="17.475" r="17.475" fill="#ff7c7c"/>
  <g id="Group_101" data-name="Group 101" transform="translate(13.85 6.6)">
    <path id="Path_251" data-name="Path 251" d="M212.492,311.251a2.575,2.575,0,1,1-2.575-2.575A2.413,2.413,0,0,1,212.492,311.251Z" transform="translate(-206.191 -291.018)" fill="#fff" stroke="#ff7c7c" stroke-width="0.8"/>
    <path id="Path_252" data-name="Path 252" d="M204.562,185.688l1.288-9.2a3.725,3.725,0,0,0-3.679-4.23h0a3.725,3.725,0,0,0-3.679,4.23l1.288,9.2a2.393,2.393,0,0,0,2.391,2.023h0A2.124,2.124,0,0,0,204.562,185.688Z" transform="translate(-198.446 -172.261)" fill="#fff" stroke="#ff7c7c" stroke-width="0.8"/>
  </g>
</svg>
