<svg xmlns="http://www.w3.org/2000/svg" width="38.066" height="25.953" viewBox="0 0 38.066 25.953">
  <path id="Subtraction_30" data-name="Subtraction 30" d="M19.032,25.953a20.3,20.3,0,0,1-11.638-3.64A20.48,20.48,0,0,1,0,12.977a20.447,20.447,0,0,1,38.066,0,20.481,20.481,0,0,1-7.392,9.336A20.3,20.3,0,0,1,19.032,25.953Zm0-21.628a8.651,8.651,0,1,0,8.652,8.652A8.661,8.661,0,0,0,19.032,4.325Zm0,13.842a5.191,5.191,0,1,1,5.191-5.19A5.2,5.2,0,0,1,19.032,18.167Z" transform="translate(0)" fill="#d3dbf8"/>
</svg>
