<svg xmlns="http://www.w3.org/2000/svg" width="38.065" height="25.953" viewBox="0 0 38.065 25.953">
  <path id="Subtraction_30" data-name="Subtraction 30" d="M19.033,25.953a20.3,20.3,0,0,1-11.638-3.64A20.571,20.571,0,0,1,0,12.977,20.555,20.555,0,0,1,9.7,2.255L13.8,6.085A8.651,8.651,0,1,0,26.273,17.712l4.7,4.387a20.33,20.33,0,0,1-5.558,2.837A20.407,20.407,0,0,1,19.033,25.953Zm15.117-6.689L27.68,13.232c0-.084,0-.17,0-.255a8.661,8.661,0,0,0-8.651-8.651c-.286,0-.575.014-.858.042L14.127.593A20.482,20.482,0,0,1,38.065,12.977a20.539,20.539,0,0,1-1.681,3.335,20.639,20.639,0,0,1-2.235,2.952Zm-15.117-1.1A5.19,5.19,0,0,1,16.4,8.5l7.279,6.788a5.195,5.195,0,0,1-4.646,2.875Z" fill="#d3dbf8"/>
</svg>
