<svg id="americanexpress-solid-large" xmlns="http://www.w3.org/2000/svg" width="52.909" height="35.272" viewBox="0 0 52.909 35.272">
  <path id="Shape" d="M1.654,6.283H0L2.756,0H4.63L7.275,6.172H5.622L5.07,4.96H2.2l-.55,1.322Zm1.984-4.96L3.2,2.314,2.646,3.748H4.63L4.078,2.314Z" transform="translate(0 9.369)" fill="#fff"/>
  <path id="Path" d="M6.283,1.212l-.331.882L4.519,6.173H3.2L1.764,2.094l-.331-.882v4.96H0V0H2.425L3.638,3.637l.22.661.22-.661L5.291,0H7.716V6.173H6.283Z" transform="translate(7.606 9.369)" fill="#fff"/>
  <path id="Path-2" data-name="Path" d="M1.433,1.323v1.1H4.85V3.748H1.433v1.1H4.96V6.173H0V0H4.96V1.323Z" transform="translate(16.534 9.369)" fill="#fff"/>
  <path id="Shape-2" data-name="Shape" d="M1.544,6.211H0V.038H3.417A1.928,1.928,0,0,1,3.793,0,1.851,1.851,0,0,1,5.622,1.691v.33a1.737,1.737,0,0,1-.414,1.323,1.892,1.892,0,0,1-1.24.661l1.982,2.2-1.872,0L2.2,4.006H1.544v2.2ZM1.433,1.36V2.683H3.2a.831.831,0,0,0,.772-.552v-.11c0-.22,0-.33-.11-.44l-.11-.111a.144.144,0,0,1-.11-.055.144.144,0,0,0-.11-.055h-2.1Z" transform="translate(22.486 9.332)" fill="#fff"/>
  <rect id="Rectangle" width="1.543" height="6.173" transform="translate(28.769 9.369)" fill="#fff"/>
  <path id="Path-3" data-name="Path" d="M2.984.11H4.747V1.433H3.094A1.669,1.669,0,0,0,1.441,2.866V3.2A1.525,1.525,0,0,0,2.763,4.96h.661L2.984,6.283h-.11A2.666,2.666,0,0,1,.008,3.637V3.086A2.909,2.909,0,0,1,2.543,0,.663.663,0,0,0,2.984.11Z" transform="translate(31.187 9.259)" fill="#fff"/>
  <path id="Shape-3" data-name="Shape" d="M1.654,6.283H0L2.646,0H4.63L7.385,6.172H5.732L5.18,4.96H2.2l-.55,1.322Zm1.984-4.96h0L3.2,2.314,2.646,3.748H4.63L3.968,2.314l-.33-.992Z" transform="translate(34.942 9.369)" fill="#fff"/>
  <path id="Path-4" data-name="Path" d="M1.433,6.283H0V0H1.764l2.2,3.307.441.661V0H5.952V6.173H4.078l-2.2-3.417-.441-.661Z" transform="translate(42.548 9.369)" fill="#fff"/>
  <path id="Path-5" data-name="Path" d="M1.433,1.323v1.1H4.96V3.637H1.433v1.1H4.96V6.062H0V0H4.96V1.323Z" transform="translate(11.243 21.163)" fill="#fff"/>
  <path id="Path-6" data-name="Path" d="M.11,6.173,2.535,3.086,0,0H1.874L3.417,1.874,4.96,0H6.724L4.3,3.086,6.834,6.173H4.96L3.417,4.189,1.874,6.173Z" transform="translate(16.424 21.163)" fill="#fff"/>
  <path id="Shape-4" data-name="Shape" d="M1.433,6.183H0V.011H3.417C3.487,0,3.558,0,3.628,0A1.983,1.983,0,0,1,5.622,1.773c0,.109,0,.221-.11.221A2.069,2.069,0,0,1,3.528,4.089h-2.1V6.182Zm.111-4.96V2.766H3.306a.754.754,0,0,0,.772-.771.755.755,0,0,0-.772-.772Z" transform="translate(23.478 21.153)" fill="#fff"/>
  <path id="Shape-5" data-name="Shape" d="M1.433,6.184H0V.011H3.417C3.487,0,3.558,0,3.628,0a2,2,0,0,1,.231,3.979l1.982,2.2-1.872,0-1.874-2.2H1.433v2.2Zm.111-4.741V2.766H3.306a.419.419,0,0,0,.133.022.786.786,0,0,0,.639-.572V2.1a.707.707,0,0,0-.662-.662H1.544Z" transform="translate(29.872 21.043)" fill="#fff"/>
  <path id="Path-7" data-name="Path" d="M1.543,1.323v1.1H4.96V3.637H1.543v1.1H5.07V6.062H0V0H5.07L4.96,1.323Z" transform="translate(36.155 21.163)" fill="#fff"/>
  <path id="Path-8" data-name="Path" d="M4.078,4.519c.11-.331-.11-.551-.441-.661H1.984A1.819,1.819,0,0,1,0,2.315V1.984A1.955,1.955,0,0,1,1.874,0H5.291L4.74,1.323H2.094c-.331-.11-.551.11-.661.441s.11.551.441.661H3.527A1.9,1.9,0,0,1,5.511,3.858v.331A1.885,1.885,0,0,1,3.638,6.173H.22V4.85h3.2C3.748,5.07,3.968,4.85,4.078,4.519Z" transform="translate(41.776 21.053)" fill="#fff"/>
  <path id="Path-9" data-name="Path" d="M52.909,19.73H20.833l-.992,1.323-.882-1.323H9.81v9.039h9.149l.992-1.323.882,1.323h5.511V26.785h.661a8.509,8.509,0,0,0,1.653-.22v2.315h3.748V27.226l1.323,1.653h17.2a4.125,4.125,0,0,0,1.984-.551V26.234a1.8,1.8,0,0,1-1.984,1.212h-3.2V26.124h3.2c.331.11.551-.11.661-.441s-.11-.551-.441-.661H49.492a1.819,1.819,0,0,1-1.984-1.543v-.331a1.885,1.885,0,0,1,1.874-1.984h3.527v9.7A4.422,4.422,0,0,1,48.5,35.272H4.409A4.422,4.422,0,0,1,0,30.863V16.975H2.535l.551-1.323H4.3l.551,1.323H25.022V15.321l1.323,1.653h5.291V16.2a3.764,3.764,0,0,0,2.645.772h3.2l.551-1.323h1.213l.551,1.323h5.4V15.211l1.1,1.764h3.748V7.936H46.075V9.81L44.863,7.936H41.445v2.315l-1.1-2.315H34.5a4.823,4.823,0,0,0-2.756.882V7.936H12.125L11.464,9.92,10.8,7.936H6.393v2.315L5.4,7.936H1.764L0,12.125V4.409A4.422,4.422,0,0,1,4.409,0H48.5a4.422,4.422,0,0,1,4.409,4.409Z" fill="#fff"/>
  <g id="amex" transform="translate(25.878 11.464)">
    <path id="Shape-6" data-name="Shape" d="M.084.579A.518.518,0,0,1,0,.572H.048A.754.754,0,0,0,.654.085C.667.055.678.028.687,0A.91.91,0,0,1,.518.354a.6.6,0,0,1-.291.2A.5.5,0,0,1,.084.579Z" transform="translate(0 0)" fill="#fff"/>
    <path id="Path-10" data-name="Path" d="M3.446,1.323H.69c-.331-.11-.551.11-.661.441s.11.551.441.661H2.123a1.7,1.7,0,0,1,1.764.992V0Z" transform="translate(23.034 9.7)"/>
  </g>
</svg>
