<svg xmlns="http://www.w3.org/2000/svg" width="325.187" height="84.82" viewBox="0 0 325.187 84.82">
  <g id="eNOOL_Logo" transform="translate(-30.531 -9.451)">
    <g id="bkwMzn_00000160166984108150449220000006440932771261094566_" transform="translate(30.531 9.451)">
      <g id="Group_17029" data-name="Group 17029">
        <path id="Path_12422" data-name="Path 12422" d="M55.369,84.588c2.083-.042,2.083-.042,2.078,1.9-.007,2.55-.181,2.71-2.759,2.544a11.729,11.729,0,0,1-10.9-8.429c-2.512-8.4-4.87-16.844-7.282-25.273-1.791-6.258-3.387-12.578-5.4-18.764A12.318,12.318,0,0,1,39.738,20.96c9.047-2.487,18.058-5.109,27.082-7.677,3.72-1.059,7.436-2.138,11.157-3.191a9.035,9.035,0,0,1,3.6-.607,5.491,5.491,0,0,1,4.97,4.14C88.388,19.947,90.188,26.281,92,32.614q2.892,10.1,5.775,20.21c.616,2.149.079,3.108-2.112,3.734q-21.211,6.05-42.421,12.1c-3.661,1.045-5.859,3.785-5.888,7.288A8.3,8.3,0,0,0,53.2,84.365,7.952,7.952,0,0,0,55.369,84.588Zm-10.4-15.733c.663-.6,1.225-1.158,1.839-1.652a1.5,1.5,0,0,0,.51-1.813C44.774,56.6,42.275,47.8,39.741,39a9.966,9.966,0,0,1,6.745-12.54c2.306-.707,4.627-1.361,6.946-2.022q14.029-4,28.059-7.992c.468-.134,1.188-.069,1.022-.916-.154-.785-.42-1.517-1.371-1.6a2.914,2.914,0,0,0-1.011.156Q60.576,19.653,41.026,25.23c-4.881,1.394-7.016,5.335-5.614,10.223q4.07,14.185,8.1,28.381C43.992,65.514,44.485,67.191,44.968,68.855Z" transform="translate(-30.531 -9.451)" fill="#fff"/>
        <path id="Path_12423" data-name="Path 12423" d="M56,67.16c-1.065.3-2.124.617-3.2.9a2.148,2.148,0,1,1-1.177-4.1c4.591-1.346,9.194-2.651,13.795-3.963Q78.4,56.3,91.375,52.609c.258-.073.515-.154.778-.2A2.105,2.105,0,0,1,94.7,53.83,2.061,2.061,0,0,1,93.3,56.477c-1.932.617-3.89,1.153-5.84,1.709q-10.548,3-21.1,5.98a1.434,1.434,0,0,0-1.221,1.621c.036,5.743.025,11.487.024,17.229,0,.328.2.753-.151.96s-.627-.17-.894-.354c-1.134-.783-2.269-1.567-3.374-2.389a1.137,1.137,0,0,0-1.548,0c-1.076.8-2.182,1.555-3.284,2.316-.271.187-.546.54-.9.349-.338-.181-.279-.606-.279-.942q-.015-4.135-.011-8.27c0-1.684,0-3.37,0-5.054C54.724,68.062,54.728,68.062,56,67.16Z" transform="translate(-25.937 0.78)" fill="#fff"/>
        <path id="Path_12424" data-name="Path 12424" d="M63.8,70.332c0-2.134,0-2.144,2.035-2.725q13.188-3.767,26.38-7.524a6.664,6.664,0,0,1,1.115-.268,2.233,2.233,0,0,1,2.409,1.694,2.111,2.111,0,0,1-1.453,2.534c-2.112.681-4.252,1.272-6.387,1.88Q76.8,69.086,65.705,72.234c-1.9.54-1.9.541-1.906-1.442C63.8,70.638,63.8,70.484,63.8,70.332Z" transform="translate(-22.599 2.555)" fill="#fff"/>
      </g>
    </g>
    <g id="Group_17030" data-name="Group 17030" transform="translate(109.14 11.153)">
      <path id="Path_12425" data-name="Path 12425" d="M150.957,75.22H135.449L109.513,35.952V75.22H94V11.557h15.508l25.937,39.449V11.557h15.508Z" transform="translate(-94.005 -10.65)" fill="#fff"/>
      <path id="Path_12426" data-name="Path 12426" d="M163.226,71.858A31.18,31.18,0,0,1,151.347,60.2a32.55,32.55,0,0,1-4.4-16.822,32.313,32.313,0,0,1,4.4-16.777A31.291,31.291,0,0,1,163.226,15a34.554,34.554,0,0,1,32.92,0,30.647,30.647,0,0,1,11.79,11.608,32.869,32.869,0,0,1,4.309,16.777A32.82,32.82,0,0,1,207.89,60.2,30.933,30.933,0,0,1,196.1,71.858a34.473,34.473,0,0,1-32.874,0ZM191.883,56.8q4.579-5.077,4.578-13.421,0-8.434-4.578-13.468t-12.2-5.033q-7.706,0-12.288,4.987t-4.579,13.513q0,8.434,4.579,13.468t12.288,5.032Q187.3,61.883,191.883,56.8Z" transform="translate(-81.381 -10.825)" fill="#fff"/>
      <path id="Path_12427" data-name="Path 12427" d="M220.782,71.858A31.183,31.183,0,0,1,208.9,60.2a32.561,32.561,0,0,1-4.4-16.822,32.324,32.324,0,0,1,4.4-16.777A31.286,31.286,0,0,1,220.782,15a34.554,34.554,0,0,1,32.92,0,30.656,30.656,0,0,1,11.79,11.608A32.87,32.87,0,0,1,269.8,43.382,32.82,32.82,0,0,1,265.446,60.2a30.95,30.95,0,0,1-11.79,11.654,34.473,34.473,0,0,1-32.874,0ZM249.441,56.8q4.577-5.077,4.579-13.421,0-8.434-4.579-13.468t-12.2-5.033q-7.707,0-12.288,4.987t-4.58,13.513q0,8.434,4.58,13.468t12.288,5.032Q244.86,61.883,249.441,56.8Z" transform="translate(-67.658 -10.825)" fill="#fff"/>
      <path id="Path_12428" data-name="Path 12428" d="M279.692,63.249h20.314V75.22H264.184V11.557H279.69V63.249Z" transform="translate(-53.428 -10.65)" fill="#fff"/>
    </g>
    <g id="Group_17031" data-name="Group 17031" transform="translate(50.305 24.675)">
      <path id="Path_12429" data-name="Path 12429" d="M79.9,35.735,58.179,43.659a6.938,6.938,0,0,0,3.508,3.776,6.115,6.115,0,0,0,4.633.059,5.368,5.368,0,0,0,3.89-4.853l10.217-3.728A14.92,14.92,0,0,1,79.62,45.5,15.083,15.083,0,0,1,75.9,51.251,17.539,17.539,0,0,1,69.5,55.174,17.856,17.856,0,0,1,60.593,56.2a14.88,14.88,0,0,1-7.662-3.564,18.451,18.451,0,0,1-5.133-7.8,18.646,18.646,0,0,1-1.12-9.26,14.678,14.678,0,0,1,3.537-7.651,19.36,19.36,0,0,1,16.314-6.016,14.587,14.587,0,0,1,7.515,3.428,17.6,17.6,0,0,1,5,7.525A26.23,26.23,0,0,1,79.9,35.735ZM68.3,33.924a5.265,5.265,0,0,0-3.118-3.317,6.6,6.6,0,0,0-4.742.077,6.469,6.469,0,0,0-3.558,2.888,6.633,6.633,0,0,0-.594,4.733Z" transform="translate(-46.498 -21.744)" fill="#1e6b77"/>
    </g>
  </g>
</svg>
