<svg id="Group_16914" data-name="Group 16914" xmlns="http://www.w3.org/2000/svg" xmlns:xlink="http://www.w3.org/1999/xlink" width="21.594" height="21.636" viewBox="0 0 21.594 21.636">
  <defs>
    <clipPath id="clip-path">
      <rect id="Rectangle_6633" data-name="Rectangle 6633" width="21.594" height="21.636" fill="#015464"/>
    </clipPath>
  </defs>
  <g id="Group_16913" data-name="Group 16913" clip-path="url(#clip-path)">
    <path id="Path_12361" data-name="Path 12361" d="M199.994,195.407c0,.8,0,1.609,0,2.413a2.475,2.475,0,0,1-2.467,2.482c-1.649.006-3.3,0-4.946,0a.837.837,0,0,1-.912-.844.825.825,0,0,1,.9-.852q2.343,0,4.687,0c.743,0,1.044-.3,1.044-1.035q0-2.374,0-4.748a.815.815,0,0,1,.559-.816.837.837,0,0,1,.937.257.863.863,0,0,1,.2.575c0,.856,0,1.712,0,2.568" transform="translate(-178.402 -178.669)" fill="#015464"/>
    <path id="Path_12362" data-name="Path 12362" d="M194.939.01c.82,0,1.64-.005,2.46,0a2.477,2.477,0,0,1,2.437,2.432c.008,1.669,0,3.338,0,5.007a.829.829,0,0,1-.853.9.841.841,0,0,1-.84-.916q0-2.348,0-4.7c0-.725-.3-1.032-1.021-1.032q-2.369,0-4.738,0a.82.82,0,0,1-.792-.484.817.817,0,0,1,.088-.882.811.811,0,0,1,.7-.332c.854,0,1.709,0,2.563,0" transform="translate(-178.247 -0.008)" fill="#015464"/>
    <path id="Path_12363" data-name="Path 12363" d="M4.9,200.38c-.82,0-1.64.005-2.46,0A2.478,2.478,0,0,1,0,197.947c-.008-1.669,0-3.338,0-5.007a.825.825,0,0,1,.851-.9.837.837,0,0,1,.841.914q0,2.309,0,4.618c0,.834.275,1.112,1.1,1.112q2.343,0,4.686,0a.825.825,0,0,1,.816.6.848.848,0,0,1-.857,1.1c-.846,0-1.692,0-2.537,0" transform="translate(0 -178.747)" fill="#015464"/>
    <path id="Path_12364" data-name="Path 12364" d="M.014,4.9c0-.813,0-1.626,0-2.439A2.477,2.477,0,0,1,2.457,0C4.114,0,5.771,0,7.428,0a.84.84,0,0,1,.91.846.834.834,0,0,1-.9.85q-2.356,0-4.713,0c-.707,0-1.014.306-1.015,1.009,0,1.591,0,3.183,0,4.774a.825.825,0,0,1-.586.825.861.861,0,0,1-.962-.329.881.881,0,0,1-.146-.54c0-.847,0-1.695,0-2.542" transform="translate(-0.011 0)" fill="#015464"/>
  </g>
</svg>
