<svg xmlns="http://www.w3.org/2000/svg" width="53" height="35" viewBox="0 0 53 35">
  <g id="mastercard-solid-large" transform="translate(-0.477)">
    <path id="Shape" d="M48.584,35H4.416A4.4,4.4,0,0,1,0,30.625V4.375A4.4,4.4,0,0,1,4.416,0H48.584A4.4,4.4,0,0,1,53,4.375v26.25A4.4,4.4,0,0,1,48.584,35ZM19.235,5.895A11.714,11.714,0,0,0,10.122,10.2a11.518,11.518,0,0,0,0,14.6A11.713,11.713,0,0,0,19.235,29.1a11.855,11.855,0,0,0,5.3-1.258A13.791,13.791,0,0,1,19.809,17.5,13.572,13.572,0,0,1,24.535,7.153,11.85,11.85,0,0,0,19.235,5.895Zm14.486.011a11.848,11.848,0,0,0-5.278,1.247A12.589,12.589,0,0,1,30.21,8.969a13.732,13.732,0,0,1-1.745,18.878,11.758,11.758,0,0,0,11.9-.8,11.561,11.561,0,0,0,4.289-5.395A11.516,11.516,0,0,0,41.569,8.9,11.748,11.748,0,0,0,33.721,5.906ZM26.5,8.378h0a11.687,11.687,0,0,0-3.3,4.05,11.531,11.531,0,0,0,3.3,14.193,11.527,11.527,0,0,0,3.3-14.192,11.691,11.691,0,0,0-3.3-4.051Z" transform="translate(0.477)" fill="#fff"/>
    <g id="mastercard" transform="translate(5.126 3.527)">
      <g id="Group" transform="translate(0 0)" opacity="0">
        <path id="Shape-2" data-name="Shape" d="M42.658,28.217H0V0H42.658V28.216ZM14.077,2.4h0a11.7,11.7,0,1,0,5.29,22.137A13.952,13.952,0,0,1,14.65,14.109,13.733,13.733,0,0,1,19.389,3.681,11.72,11.72,0,0,0,14.078,2.4Zm14.461.027a11.733,11.733,0,0,0-5.268,1.257,12.589,12.589,0,0,1,1.763,1.83,13.931,13.931,0,0,1-1.741,19.024A11.679,11.679,0,1,0,28.538,2.424ZM21.329,4.917h0a11.684,11.684,0,0,0,0,18.385,11.695,11.695,0,0,0,0-18.385Z" transform="translate(0 0)" fill="#212b36"/>
      </g>
      <path id="Shape-3" data-name="Shape" d="M.552.453H.463V0H.584L.716.319.86,0H.97V.451H.893V.11l-.121.3H.684L.552.11V.452ZM.22.452H.155V.077H0V0H.386V.077H.22V.451Z" transform="translate(38.899 20.899)" fill="#212b36"/>
    </g>
  </g>
</svg>
