<svg xmlns="http://www.w3.org/2000/svg" width="53" height="35" viewBox="0 0 53 35">
  <g id="paypal-solid-large" transform="translate(0.091)">
    <path id="Shape" d="M48.584,35H4.416A4.4,4.4,0,0,1,0,30.625V4.375A4.4,4.4,0,0,1,4.416,0H48.584A4.4,4.4,0,0,1,53,4.375v26.25A4.4,4.4,0,0,1,48.584,35ZM20.979,6.563a.988.988,0,0,0-.972.831L17.159,25.331a.572.572,0,0,0,.128.472.587.587,0,0,0,.445.207h4.24l-.287,1.838a.49.49,0,0,0,.108.418.5.5,0,0,0,.38.173h3.674a.856.856,0,0,0,.851-.722V27.54l.662-4.222v-.241a.842.842,0,0,1,.84-.722h.552a7.67,7.67,0,0,0,4.472-1.192,6.416,6.416,0,0,0,2.484-4.211,4.6,4.6,0,0,0-.685-4.09,3.3,3.3,0,0,0-.971-.744A4.348,4.348,0,0,0,33.125,8.2c-1.057-1.088-2.832-1.64-5.278-1.64Zm4.88,21.12h-3.4l1.391-8.969h2.131a8.865,8.865,0,0,0,5.005-1.292,7.112,7.112,0,0,0,2.868-4.516,1.976,1.976,0,0,1,.508.471,2.841,2.841,0,0,1,.64,1.4,5.947,5.947,0,0,1-.11,2.035,7.046,7.046,0,0,1-.839,2.318,4.876,4.876,0,0,1-1.326,1.444,5.662,5.662,0,0,1-1.811.809,9.989,9.989,0,0,1-2.182.241h-.6a1.648,1.648,0,0,0-1.59,1.355v.22l-.685,4.244v.153a.29.29,0,0,0,.008.077.044.044,0,0,1,0,.007S25.864,27.682,25.86,27.682Zm-3.852-1.895h0l.077-.522H17.909L20.759,7.5s0-.007,0-.011a.192.192,0,0,1,.067-.142.314.314,0,0,1,.154,0h6.868c2.286,0,3.853.471,4.66,1.4a2.958,2.958,0,0,1,.751,1.323,4.527,4.527,0,0,1,0,1.75l-.032-.011-.167-.055-.431-.109-.452-.088a11.2,11.2,0,0,0-1.71-.131H25.021a.817.817,0,0,0-.365.088.832.832,0,0,0-.475.634l-.618,3.894-.53,3.281L23,19.534Z" transform="translate(-0.091)" fill="#fff"/>
    <g id="paypal" transform="translate(22.993 16.148)">
      <path id="Path" d="M.789.011.26,3.329.778,0,.789.011Z" transform="translate(-0.26 0)" fill="#fff"/>
    </g>
  </g>
</svg>
