<svg id="Group_16910" data-name="Group 16910" xmlns="http://www.w3.org/2000/svg" xmlns:xlink="http://www.w3.org/1999/xlink" width="30.174" height="22.645" viewBox="0 0 30.174 22.645">
  <defs>
    <clipPath id="clip-path">
      <rect id="Rectangle_6563" data-name="Rectangle 6563" width="30.174" height="22.645" fill="#7cc9b5"/>
    </clipPath>
  </defs>
  <g id="Group_16832" data-name="Group 16832" clip-path="url(#clip-path)">
    <path id="Path_12318" data-name="Path 12318" d="M118.595,111.608a3.216,3.216,0,0,1-.774,1.432,2.969,2.969,0,0,1-2.216.857q-8.294,0-16.589,0A2.849,2.849,0,0,1,96.123,112a2.8,2.8,0,0,1,2.453-3.711c.383-.024.765-.03,1.148-.03q7.838,0,15.675,0a3.85,3.85,0,0,1,1.252.143,2.776,2.776,0,0,1,1.859,1.9c.026.084.056.167.084.25Z" transform="translate(-88.421 -99.752)" fill="#7cc9b5"/>
    <path id="Path_12319" data-name="Path 12319" d="M118.614,3.328a2.85,2.85,0,0,1-1.783,2.112,2.9,2.9,0,0,1-1.066.194q-8.441,0-16.882,0a2.808,2.808,0,0,1-.252-5.61c.156-.011.314,0,.471,0,5.421,0,10.843.029,16.264-.017a3.015,3.015,0,0,1,3.248,2.268Z" transform="translate(-88.44 -0.001)" fill="#7cc9b5"/>
    <path id="Path_12320" data-name="Path 12320" d="M118.508,219.82a3.069,3.069,0,0,1-1.126,1.711,2.714,2.714,0,0,1-1.593.537q-8.589.007-17.177,0a2.8,2.8,0,0,1-.362-5.564,4.7,4.7,0,0,1,.7-.047c5.47,0,10.941.02,16.411-.012a2.969,2.969,0,0,1,3.143,2.318Z" transform="translate(-88.334 -199.435)" fill="#7cc9b5"/>
    <path id="Path_12321" data-name="Path 12321" d="M0,2.347A3.009,3.009,0,0,1,1.1.658,2.691,2.691,0,0,1,3.883.334,2.691,2.691,0,0,1,5.562,2.6,2.805,2.805,0,0,1,.106,3.769c-.034-.1-.07-.2-.106-.3V2.347" transform="translate(0 -0.079)" fill="#7cc9b5"/>
    <path id="Path_12322" data-name="Path 12322" d="M0,218.789a3,3,0,0,1,1.157-1.719,2.7,2.7,0,0,1,2.921-.191,2.686,2.686,0,0,1,1.511,2.479,2.81,2.81,0,0,1-5.484.854c-.034-.1-.069-.2-.1-.305v-1.118" transform="translate(0 -199.522)" fill="#7cc9b5"/>
    <path id="Path_12323" data-name="Path 12323" d="M0,110.659a2.945,2.945,0,0,1,.993-1.628,2.706,2.706,0,0,1,2.823-.438,2.657,2.657,0,0,1,1.74,2.258,2.8,2.8,0,0,1-5.482,1.089c-.023-.075-.049-.149-.074-.223v-1.059" transform="translate(0 -99.862)" fill="#7cc9b5"/>
  </g>
</svg>
