<svg id="visa-solid-large" xmlns="http://www.w3.org/2000/svg" width="53" height="35" viewBox="0 0 53 35">
  <path id="Shape" d="M48.584,35H4.416A4.4,4.4,0,0,1,0,30.625V4.375A4.4,4.4,0,0,1,4.416,0H48.584A4.4,4.4,0,0,1,53,4.375v26.25A4.4,4.4,0,0,1,48.584,35ZM26.412,20l-.475,2.187a7.937,7.937,0,0,0,2.875.537h.1c2.786,0,4.593-1.357,4.6-3.456.007-1.6-1.323-2.3-2.392-2.854-.7-.367-1.307-.683-1.307-1.16,0-.323.289-.737,1.1-.843.1-.006.195-.008.291-.008a5.02,5.02,0,0,1,2.249.534l.463-2.187a7.143,7.143,0,0,0-2.473-.449,5.286,5.286,0,0,0-3.168.935,2.981,2.981,0,0,0-1.248,2.412c-.021,1.421,1.222,2.213,2.308,2.745,1.024.5,1.369.819,1.369,1.258,0,.684-.819,1-1.579,1h-.11A5.589,5.589,0,0,1,26.412,20Zm10.279,1.061h3.357l.32,1.509h2.419L40.645,12.458H38.437a1.2,1.2,0,0,0-1.1.743l-3.964,9.373h2.783l.54-1.508ZM23.684,12.458,21.476,22.574h2.65l2.208-10.116Zm-13.5,0h0l-.066.3a10.978,10.978,0,0,1,2.606.852,1.1,1.1,0,0,1,.629.886l2.11,8.083h2.793l4.284-10.116H19.754L17,19.337l-1.1-5.851a1.227,1.227,0,0,0-1.219-1.028h-4.5Zm29.449,6.529H37.421l1.4-3.8.806,3.794Z" fill="#fff"/>
</svg>
